# xmcd CD database file
#
# Track frame offsets:
#	150
#	11350
#	27375
#	41086
#	57608
#	74032
#	89181
#	109149
#	125195
#	137309
#	155302
#	170773
#
# Disc length: 2376 seconds
#
# Revision: 0
# Processed by: cddbd v1.5.2PL0 Copyright (c) Steve Scherf et al.
# Submitted via: CDex 1.70beta2
#
DISCID=b209460c
DTITLE=Dianna Corcoran - Keep Breathing
DYEAR=2010
DGENRE=Country
TTITLE0=Thank You For Cheating On Me
TTITLE1=Keep Breathing
TTITLE2=Wrong Girl
TTITLE3=Homeless
TTITLE4=Never
TTITLE5=To Be Me
TTITLE6=Rocky Hill
TTITLE7=I Just Want My Happiness Back
TTITLE8=Here's Your Damn Song
TTITLE9=You'll Always Love Me More
TTITLE10=Come Back Home
TTITLE11=Keep Breathing (Reprise)
EXTD=YEAR: 2010
EXTT0=
EXTT1=
EXTT2=
EXTT3=
EXTT4=
EXTT5=
EXTT6=
EXTT7=
EXTT8=
EXTT9=
EXTT10=
EXTT11=
PLAYORDER=
